<svg width="100" height="100" viewBox="0 0 100 100" fill="none" xmlns="http://www.w3.org/2000/svg">
<rect x="8" y="31" width="68" height="48" rx="8" fill="#F6F6F6"/>
<rect x="25.5" y="20.5" width="67" height="47" rx="7.5" fill="white" stroke="#150035"/>
<path d="M89.416 51.8219L85.4285 48.675C85.3951 48.6488 85.3551 48.6325 85.3129 48.6279C85.2706 48.6234 85.228 48.6309 85.1899 48.6495C85.1517 48.6681 85.1196 48.697 85.0971 48.7331C85.0746 48.7691 85.0628 48.8107 85.0629 48.8531V50.875H78.1254V43.9375H80.1504C80.3379 43.9375 80.4441 43.7188 80.3285 43.5719L77.1785 39.5844C77.1577 39.5574 77.1309 39.5356 77.1003 39.5205C77.0697 39.5055 77.036 39.4977 77.0019 39.4977C76.9678 39.4977 76.9342 39.5055 76.9036 39.5205C76.873 39.5356 76.8462 39.5574 76.8254 39.5844L73.6754 43.5719C73.6491 43.6052 73.6328 43.6453 73.6283 43.6875C73.6238 43.7297 73.6313 43.7724 73.6498 43.8105C73.6684 43.8487 73.6974 43.8808 73.7334 43.9033C73.7694 43.9258 73.8111 43.9376 73.8535 43.9375H75.8754V50.875H68.9379V48.85C68.9379 48.6625 68.7191 48.5563 68.5723 48.6719L64.5848 51.8219C64.5578 51.8427 64.5359 51.8695 64.5209 51.9001C64.5059 51.9307 64.498 51.9643 64.498 51.9984C64.498 52.0325 64.5059 52.0662 64.5209 52.0968C64.5359 52.1274 64.5578 52.1542 64.5848 52.175L68.5691 55.325C68.716 55.4406 68.9348 55.3375 68.9348 55.1469V53.125H75.8723V60.0625H73.8473C73.6598 60.0625 73.5535 60.2813 73.6691 60.4281L76.8191 64.4125C76.9098 64.5281 77.0848 64.5281 77.1723 64.4125L80.3223 60.4281C80.4379 60.2813 80.3348 60.0625 80.1441 60.0625H78.1254V53.125H85.0629V55.15C85.0629 55.3375 85.2816 55.4438 85.4285 55.3281L89.4129 52.1781C89.4398 52.157 89.4616 52.1301 89.4767 52.0994C89.4918 52.0687 89.4997 52.035 89.5 52.0008C89.5003 51.9666 89.4929 51.9327 89.4784 51.9017C89.4639 51.8708 89.4425 51.8435 89.416 51.8219V51.8219Z" fill="#007FFF"/>
</svg>
